<svg id="global-nav-icon--mercado__notifications--active" height="24" width="24" xmlns="http://www.w3.org/2000/svg">
    <path d="M21.4 17L20.7 15.6L5.2 12.2L4 13.1C3 13.9 2.4 14.7 2.2 15.6L2 16.6L21.7 21L21.9 20C22 19.7 22 19.5 22 19.2C22 18.5 21.8 17.8 21.4 17Z"></path>
    <path d="M20.5 8.8C20.8 5.7 18.7 2.8 15.6 2.1C15.1 2 14.6 2 14.2 2C11.6 2 9.19999 3.6 8.29999 6.1L6.29999 11.4L20.1 14.5L20.5 8.8Z"></path>
    <path d="M11 20C11 21.1 11.9 22 13 22C14.1 22 15 21.1 15 20C15 19.8 15 19.7 14.9 19.5L11.4 18.7C11.2 19.1 11 19.5 11 20Z"></path>
  </svg>